HIERARCHY
ROOT root
{
	OFFSET	0	13.1	24.9
	CHANNELS 6  Xposition Yposition Zposition Xrotation Yrotation Zrotation
	JOINT spine_1
	{
		OFFSET	0	9.99999	0
		CHANNELS 3  Xrotation Yrotation Zrotation
		JOINT spine_2
		{
			OFFSET	0	112	-10
			CHANNELS 3  Xrotation Yrotation Zrotation
			JOINT spine_3
			{
				OFFSET	0	206.5	19.3
				CHANNELS 3  Xrotation Yrotation Zrotation
				JOINT spine_4
				{
					OFFSET	0	110.4	14.6
					CHANNELS 3  Xrotation Yrotation Zrotation
					JOINT neck_1
					{
						OFFSET	0	71.8	-50.3
						CHANNELS 3  Xrotation Yrotation Zrotation
						JOINT neck_2
						{
							OFFSET	0	86.2	-25.8
							CHANNELS 3  Xrotation Yrotation Zrotation
							JOINT head_ee
							{
								OFFSET	0	179.8	-8.7
								CHANNELS 3  Xrotation Yrotation Zrotation
								End Site
								{
									OFFSET	1	0	0
								}
							}
						}
					}
					JOINT left_clavicle
					{
						OFFSET	-43.2	22.4	-70.8
						CHANNELS 3  Xrotation Yrotation Zrotation
						JOINT left_shoulder
						{
							OFFSET	-93.9	-5.79999	48.7
							CHANNELS 3  Xrotation Yrotation Zrotation
							JOINT left_elbow
							{
								OFFSET	-291.4	-30.8	15.2
								CHANNELS 3  Xrotation Yrotation Zrotation
								JOINT left_lowarm_twist
								{
									OFFSET	-110.7	-3.89999	13.6
									CHANNELS 3  Xrotation Yrotation Zrotation
									JOINT left_hand
									{
										OFFSET	-110.7	-3.89999	13.6
										CHANNELS 3  Xrotation Yrotation Zrotation
										JOINT left_ee
										{
											OFFSET	-80.8	-5.10001	12.1
											CHANNELS 3  Xrotation Yrotation Zrotation
											End Site
											{
												OFFSET	1	0	0
											}
										}
									}
								}
							}
						}
					}
					JOINT right_clavicle
					{
						OFFSET	43.2	22.4	-70.8
						CHANNELS 3  Xrotation Yrotation Zrotation
						JOINT right_shoulder
						{
							OFFSET	93.9	-5.79999	48.7
							CHANNELS 3  Xrotation Yrotation Zrotation
							JOINT right_elbow
							{
								OFFSET	291.4	-30.8	15.2
								CHANNELS 3  Xrotation Yrotation Zrotation
								JOINT right_lowarm_twist
								{
									OFFSET	110.7	-3.89999	13.6
									CHANNELS 3  Xrotation Yrotation Zrotation
									JOINT right_hand
									{
										OFFSET	110.7	-3.89999	13.6
										CHANNELS 3  Xrotation Yrotation Zrotation
										JOINT right_ee
										{
											OFFSET	80.8	-5.10001	12.1
											CHANNELS 3  Xrotation Yrotation Zrotation
											End Site
											{
												OFFSET	1	0	0
											}
										}
									}
								}
							}
						}
					}
				}
			}
		}
	}
	JOINT left_hip
	{
		OFFSET	-82.8	-127.5	0.300001
		CHANNELS 3  Xrotation Yrotation Zrotation
		JOINT left_knee
		{
			OFFSET	-28.2	-396.7	2.2
			CHANNELS 3  Xrotation Yrotation Zrotation
			JOINT left_ankle
			{
				OFFSET	-11.7	-411.3	35.4
				CHANNELS 3  Xrotation Yrotation Zrotation
				JOINT left_toes
				{
					OFFSET	0	-60	-88.6
					CHANNELS 3  Xrotation Yrotation Zrotation
					JOINT left_foot_ee
					{
						OFFSET	-22.5	-16.5	-42.2
						CHANNELS 3  Xrotation Yrotation Zrotation
						End Site
						{
							OFFSET	1	0	0
						}
					}
				}
			}
		}
	}
	JOINT right_hip
	{
		OFFSET	82.8	-127.5	0.300001
		CHANNELS 3  Xrotation Yrotation Zrotation
		JOINT right_knee
		{
			OFFSET	28.2	-396.7	2.2
			CHANNELS 3  Xrotation Yrotation Zrotation
			JOINT right_ankle
			{
				OFFSET	11.7	-411.3	35.4
				CHANNELS 3  Xrotation Yrotation Zrotation
				JOINT right_toes
				{
					OFFSET	0	-60	-88.6
					CHANNELS 3  Xrotation Yrotation Zrotation
					JOINT right_foot_ee
					{
						OFFSET	22.5	-16.5	-42.2
						CHANNELS 3  Xrotation Yrotation Zrotation
						End Site
						{
							OFFSET	1	0	0
						}
					}
				}
			}
		}
	}
}
MOTION
Frames: 11
Frame Time: 0.02
1141.43 694.713 -1529.19 174.811 76.4001 -177.558 -0.448484 -0.458947 1.97513 -0.446503 -0.583676 1.94194 -0.465852 -0.993605 1.76769 -0.469526 -0.702015 1.90238 -3.253 2.50602 -6.66817 -3.06034 9.73366 -6.57043 -0.0 0.0 -0.0 0.257017 -10.5524 -0.715506 2.60475 -38.57 53.2815 3.64202 -60.9856 2.14517 -77.0151 -7.44209 5.30997 0.325665 -2.21791 1.24851 -0.0 0.0 -0.0 9.34255 -22.7556 -15.9754 -40.2088 18.6421 -56.717 0.976056 25.8037 -0.223585 39.1215 0.304357 4.89247 4.02387 14.1624 -21.4722 0.0 0.0 0.0 -5.03504 -15.0113 -0.38226 -37.5318 -0.317254 5.64963 17.8157 8.94241 -2.45735 19.0616 -0.0 -0.0 -0.0 0.0 -0.0 27.5147 -34.9177 6.9664 8.06688 0.415162 1.16666 -11.0925 25.0951 -1.99311 -13.5492 0.0 0.0 0.0 0.0 0.0 
1119.25 700.472 -1541.38 173.884 76.6384 -176.554 -0.507354 -0.485486 2.1892 -0.504904 -0.623774 2.15389 -0.527759 -1.08123 1.96458 -0.532345 -0.757467 2.11061 -3.99476 3.23321 -6.26802 -3.81889 10.706 -5.96279 -0.0 0.0 -0.0 -0.198467 -6.56302 -1.18349 1.17407 -38.1932 53.4092 3.50467 -60.0433 2.02561 -78.2252 -7.59628 5.30012 0.517902 -3.1235 2.16082 -0.0 0.0 -0.0 9.85087 -23.1138 -16.6797 -39.1584 17.6116 -57.5762 0.997702 26.2995 -0.233092 39.643 0.330824 4.95369 4.05548 15.3177 -21.1059 0.0 0.0 0.0 -4.5191 -16.5399 -1.07938 -39.1484 -0.413481 5.87871 18.7114 10.1369 -2.573 19.4767 -0.0 -0.0 -0.0 0.0 -0.0 25.8055 -34.9077 5.77623 6.19635 0.304286 0.901414 -9.12402 29.1242 -1.71971 -13.4653 0.0 0.0 0.0 0.0 0.0 
1105.51 715.618 -1559.77 174.124 77.2192 -176.422 -0.520005 -0.368391 2.23047 -0.517381 -0.509541 2.20253 -0.536136 -0.980706 2.03697 -0.541343 -0.646778 2.16622 -4.13821 3.35821 -6.29889 -3.96097 10.9503 -5.95904 -0.0 0.0 -0.0 -0.75895 -2.4577 -1.78923 -0.926777 -37.3721 53.4463 3.32418 -58.7172 1.87027 -79.7074 -7.7847 5.28359 0.542342 -3.35425 2.2286 -0.0 0.0 -0.0 10.5273 -23.2747 -17.6743 -37.2993 16.6808 -58.3734 1.04034 27.2639 -0.252307 39.9314 0.3457 4.98744 4.0391 15.7669 -20.7567 0.0 0.0 0.0 -3.85035 -18.6991 -2.35173 -40.0813 -0.471945 6.00966 19.9467 11.1084 -2.73066 19.8525 -0.0 -0.0 -0.0 0.0 -0.0 25.0257 -35.0191 5.35069 2.54992 0.113373 0.374814 -6.49761 32.5669 -1.28064 -13.3115 0.0 0.0 0.0 0.0 0.0 
1081.59 715.276 -1566.55 171.697 78.3786 -173.729 -0.703725 -0.258986 2.26877 -0.700951 -0.402792 2.24771 -0.7156 -0.893024 2.10172 -0.721343 -0.549977 2.21631 -4.16348 3.48346 -6.37515 -3.98077 11.2359 -6.01563 -0.0 0.0 -0.0 -0.979111 -1.35898 -2.07531 -2.88465 -36.8645 53.335 3.1415 -57.2634 1.71536 -79.6123 -7.77263 5.2848 0.67218 -3.67884 2.96694 -0.0 0.0 -0.0 10.6404 -23.4228 -17.816 -36.5764 16.6147 -58.5796 1.0759 28.0554 -0.268811 40.0292 0.350783 4.99887 4.07926 16.2456 -20.7928 0.0 0.0 0.0 -3.71786 -19.8076 -3.17226 -40.7077 -0.512405 6.09706 19.5497 11.0261 -2.6808 19.7955 -0.0 -0.0 -0.0 0.0 -0.0 24.3044 -35.1307 4.82795 1.51076 0.0651533 0.222666 -5.86461 32.3152 -1.14992 -13.2908 0.0 0.0 0.0 0.0 0.0 
1065.67 728.525 -1570.24 171.211 79.7559 -172.947 -0.787808 -0.11857 2.27761 -0.784961 -0.263222 2.26546 -0.793924 -0.763763 2.14907 -0.800129 -0.414863 2.24266 -4.13895 3.69391 -6.3285 -3.9542 11.5858 -5.93729 -0.0 0.0 -0.0 -1.20057 -0.974906 -2.45536 -3.77096 -36.3129 53.4058 2.9627 -55.7196 1.56626 -79.4472 -7.75167 5.28685 0.854861 -4.1379 4.0067 -0.0 0.0 -0.0 10.543 -23.5585 -17.64 -35.6062 16.4181 -58.6562 1.10699 28.7382 -0.283599 40.1674 0.358 5.01501 4.1236 16.8232 -20.8041 0.0 0.0 0.0 -2.68635 -20.7634 -2.67664 -41.4357 -0.560622 6.19808 18.9971 10.9115 -2.61104 19.7094 -0.0 -0.0 -0.0 0.0 -0.0 23.1117 -35.3378 3.88586 0.093098 0.00384489 0.0137693 -5.01794 31.3908 -0.968629 -13.2934 0.0 0.0 0.0 0.0 0.0 
1053.56 729.14 -1572.88 175.189 80.8773 -177.229 -0.725329 -0.00883264 2.28979 -0.722425 -0.154481 2.28459 -0.72699 -0.659435 2.19284 -0.733571 -0.304935 2.26942 -3.97686 3.95779 -6.26452 -3.78709 12.0261 -5.84984 -0.0 0.0 -0.0 -1.29422 -1.38037 -2.69555 -5.02625 -35.88 53.5336 2.78589 -54.0624 1.4216 -79.2115 -7.72172 5.28967 1.10854 -4.78159 5.45183 -0.0 0.0 -0.0 10.3956 -23.6022 -17.4082 -34.2011 16.225 -58.7257 1.15203 29.7115 -0.305588 40.3659 0.368433 5.03816 4.17611 17.6193 -20.7528 0.0 0.0 0.0 -1.07628 -21.5809 -1.36238 -41.6368 -0.574173 6.22588 18.2249 10.7455 -2.51288 19.5846 -0.0 -0.0 -0.0 0.0 -0.0 21.0942 -35.6048 2.25505 -1.96362 -0.0758558 -0.291786 -3.92539 29.8619 -0.739515 -13.3002 0.0 0.0 0.0 0.0 0.0 
1040.4 727.523 -1571.98 172.378 82.487 -174.581 -0.655309 0.196823 2.31964 -0.652317 0.04886 2.32746 -0.648441 -0.467481 2.28058 -0.655685 -0.101542 2.32576 -3.67421 4.31589 -6.16882 -3.47547 12.618 -5.73427 -0.0 0.0 -0.0 -1.42539 -1.9984 -3.04121 -6.80085 -35.6798 53.8379 2.55864 -51.7192 1.24034 -78.8467 -7.67534 5.29379 1.47042 -5.70539 7.51939 -0.0 0.0 -0.0 10.1691 -23.1639 -17.1517 -32.2642 16.2238 -58.6407 1.21795 31.1029 -0.338958 40.6217 0.381995 5.06793 4.24472 18.6633 -20.6739 0.0 0.0 0.0 1.0324 -22.5459 -0.707391 -41.8357 -0.587664 6.25332 16.9428 10.5217 -2.3483 19.3315 -0.0 -0.0 -0.0 0.0 -0.0 20.1039 -35.6318 2.16502 -3.9796 -0.143273 -0.59382 -2.59572 27.4281 -0.471942 -13.4121 0.0 0.0 0.0 0.0 0.0 
1028.79 727.685 -1574.11 177.012 83.0301 -179.796 -0.512881 0.416567 2.37057 -0.509793 0.264922 2.39226 -0.496585 -0.26461 2.39229 -0.504552 0.116416 2.40406 -2.88928 4.70313 -6.22791 -2.66009 13.3944 -5.84488 -0.0 0.0 -0.0 -1.59773 -3.31725 -3.57251 -9.42304 -35.3739 54.073 2.23524 -47.9077 0.99314 -78.3362 -7.6104 5.29905 1.97842 -6.97658 10.4504 -0.0 0.0 -0.0 9.92055 -22.5493 -16.8878 -29.4852 16.2525 -58.6496 1.31175 33.0143 -0.38875 40.9948 0.402015 5.11125 4.29996 19.818 -20.4286 0.0 0.0 0.0 2.3312 -23.4957 0.0243883 -42.5101 -0.634131 6.34605 15.1808 10.217 -2.11866 19.0192 -0.0 -0.0 -0.0 0.0 -0.0 20.5933 -35.4855 2.4341 -4.9552 -0.17207 -0.740773 -0.524329 23.9804 -0.0910078 -13.6048 0.0 0.0 0.0 0.0 0.0 
1017.82 731.982 -1580.95 -179.274 83.3437 175.547 -0.423929 0.60084 2.50232 -0.420553 0.440446 2.53545 -0.398553 -0.120097 2.5706 -0.407659 0.287252 2.55733 -1.53639 5.32933 -5.85366 -1.274 14.2595 -5.55624 -0.0 0.0 -0.0 -1.511 -6.44775 -3.84181 -12.6185 -35.2167 54.8557 1.84557 -42.4307 0.71647 -77.4406 -7.49634 5.30688 2.65616 -8.68636 14.3913 -0.0 0.0 -0.0 9.83369 -21.7772 -16.891 -26.1614 16.3468 -59.2908 1.42161 35.1522 -0.45033 41.1669 0.411344 5.13118 4.35315 20.9832 -20.1505 0.0 0.0 0.0 3.46766 -23.8838 0.406752 -42.3566 -0.623457 6.32499 13.0533 9.57554 -1.83597 18.6229 -0.0 -0.0 -0.0 0.0 -0.0 21.7807 -35.2 2.85922 -5.4288 -0.185145 -0.812279 2.49614 19.8455 0.411699 -13.8822 0.0 0.0 0.0 0.0 0.0 
1004.26 732.797 -1586.92 -167.76 82.7046 164.14 -0.278267 0.471745 2.62913 -0.274473 0.303551 2.65379 -0.258009 -0.273046 2.6571 -0.26783 0.149866 2.66688 -0.253095 5.75839 -5.00017 0.0102298 14.3437 -4.76932 -0.0 0.0 -0.0 -1.22777 -11.0293 -3.87403 -15.1869 -34.9495 56.1339 1.35754 -33.9185 0.414004 -75.6382 -7.26639 5.31718 2.93645 -9.79103 15.8547 -0.0 0.0 -0.0 9.94306 -21.0268 -17.192 -24.8687 16.5673 -59.7051 1.49182 36.4622 -0.491408 41.4019 0.424182 5.15837 4.40887 21.3046 -20.3566 0.0 0.0 0.0 4.90179 -23.4235 0.218662 -39.4489 -0.432081 5.921 10.389 8.56318 -1.47482 17.4267 -0.0 -0.0 -0.0 0.0 -0.0 22.2083 -34.834 3.55634 -6.09597 -0.20256 -0.913184 4.77777 20.9474 0.790444 -13.0516 0.0 0.0 0.0 0.0 0.0 
992.538 733.668 -1593.16 -163.876 81.1763 159.667 -0.106303 0.252698 2.83006 -0.101851 0.0721758 2.8404 -0.0960635 -0.531493 2.7912 -0.106925 -0.0841899 2.84007 1.76786 6.28633 -3.75303 2.03292 14.2021 -3.62096 -0.0 0.0 -0.0 -0.533755 -17.6563 -3.21788 -18.6621 -34.747 58.2615 0.855207 -22.9595 0.173682 -72.9026 -6.91683 5.31886 3.28593 -11.3802 17.5796 -0.0 0.0 -0.0 10.0983 -19.9678 -17.6219 -23.638 16.6253 -60.1903 1.56685 37.815 -0.536712 41.7366 0.442658 5.19699 4.4625 21.4975 -20.6198 0.0 0.0 0.0 5.9675 -22.8194 -0.015323 -35.3149 -0.195914 5.33135 6.61966 6.56067 -0.951726 15.7183 -0.0 -0.0 -0.0 0.0 -0.0 23.0616 -34.3463 3.65784 -7.06006 -0.225645 -1.05933 7.969 22.585 1.32469 -11.9083 0.0 0.0 0.0 0.0 0.0 
